<?xml version="1.0" standalone="no"?>
<!DOCTYPE svg PUBLIC "-//W3C//DTD SVG 20010904//EN"
 "http://www.w3.org/TR/2001/REC-SVG-20010904/DTD/svg10.dtd">
<svg version="1.0" xmlns="http://www.w3.org/2000/svg"
 width="557.000000pt" height="557.000000pt" viewBox="0 0 557.000000 557.000000"
 preserveAspectRatio="xMidYMid meet">
<metadata>
Created by potrace 1.11, written by Peter Selinger 2001-2013
</metadata>
<g transform="translate(0.000000,557.000000) scale(0.100000,-0.100000)"
fill="#000000" stroke="none">
<path d="M2814 5261 c-13 -14 -41 -45 -62 -69 -28 -32 -53 -49 -105 -67 -82
-30 -130 -31 -197 -5 -100 40 -157 9 -180 -97 -14 -61 -40 -99 -99 -143 -25
-19 -48 -38 -51 -41 -15 -18 -53 -28 -97 -27 -63 3 -102 -14 -132 -57 -19 -28
-22 -42 -17 -77 3 -24 8 -54 10 -68 4 -30 -17 -88 -58 -155 -40 -65 -46 -71
-97 -91 -68 -26 -93 -53 -103 -109 -5 -29 7 -59 49 -121 18 -26 23 -45 20 -72
-2 -20 -7 -66 -10 -101 -7 -75 -17 -97 -60 -133 -83 -70 -70 -155 33 -214 37
-21 64 -71 87 -159 19 -73 19 -108 1 -143 -53 -106 -13 -177 109 -196 40 -6
53 -17 137 -113 42 -48 60 -90 54 -126 -7 -45 9 -99 39 -127 27 -25 55 -29
150 -20 22 2 54 0 70 -5 47 -13 162 -86 173 -109 6 -12 20 -42 32 -69 36 -77
104 -94 178 -43 53 36 81 44 137 40 132 -10 162 -19 194 -61 55 -69 126 -83
176 -34 17 15 41 44 55 64 27 38 61 56 152 81 69 20 105 20 140 2 14 -8 45
-17 68 -20 69 -9 110 23 124 100 13 69 66 135 159 197 36 24 49 28 97 24 66
-5 100 10 128 55 21 33 21 42 7 129 -6 41 -3 55 31 124 44 91 77 127 132 143
52 16 92 62 92 107 0 39 -12 76 -32 96 -37 38 -42 107 -18 238 8 43 17 60 46
84 44 38 62 73 57 112 -6 48 -23 73 -70 101 -52 30 -65 49 -93 134 -26 78 -27
124 -5 176 27 63 28 99 3 138 -23 36 -65 56 -115 56 -22 0 -43 12 -80 48 -79
74 -107 126 -109 198 -1 33 -9 74 -17 91 -20 37 -76 66 -114 58 -96 -21 -108
-19 -190 25 -99 54 -121 74 -134 123 -26 97 -109 125 -200 66 -57 -37 -134
-45 -222 -25 -44 10 -68 24 -107 60 -27 25 -55 47 -62 47 -73 7 -79 5 -104
-20z m86 -931 c8 -25 14 -47 15 -50 11 -35 17 -38 82 -35 82 3 157 -14 216
-48 51 -30 111 -96 126 -137 9 -27 8 -28 -32 -40 -50 -14 -88 -15 -144 -6
l-42 8 -11 -44 c-16 -60 -67 -165 -84 -171 -19 -8 -125 48 -166 88 l-35 33
-53 -47 c-55 -50 -126 -81 -144 -63 -14 14 -13 107 1 159 17 62 89 153 157
198 32 21 60 39 62 41 2 1 -6 32 -17 69 -27 85 -26 104 2 114 29 12 49 -9 67
-69z m474 -428 c19 -70 20 -106 3 -120 -18 -16 -130 -22 -174 -11 -32 8 -76
26 -92 36 -2 1 9 34 25 72 32 78 22 73 155 79 l66 3 17 -59z m-501 -91 c23
-15 52 -31 65 -35 l23 -8 -22 -36 c-12 -20 -34 -50 -48 -65 -33 -36 -126 -90
-147 -85 -10 2 -30 36 -49 82 l-33 80 81 48 c45 26 83 48 85 48 2 0 22 -13 45
-29z m261 -77 c31 -14 56 -27 56 -29 0 -21 -72 -161 -84 -163 -18 -4 -156 78
-156 92 0 19 64 108 84 116 32 13 39 12 100 -16z m232 -96 c-8 -99 -23 -112
-103 -91 -32 8 -59 16 -60 17 -6 6 41 132 51 138 6 4 35 8 65 8 l54 0 -7 -72z
m-400 -89 c60 -46 60 -42 -1 -106 -16 -18 -37 -33 -46 -33 -16 0 -119 102
-119 117 1 10 81 61 98 62 7 1 37 -18 68 -40z m261 -51 c31 -11 34 -16 30 -44
-7 -51 -53 -141 -76 -149 -22 -7 -110 44 -145 83 -18 21 -18 22 8 57 16 21 36
35 49 35 12 0 33 7 47 14 32 18 46 19 87 4z"/>
<path d="M1644 5203 c-141 -240 -170 -425 -95 -603 17 -41 48 -101 69 -132
l39 -58 19 23 c55 62 106 161 130 251 20 74 12 226 -15 316 -23 74 -96 236
-111 245 -5 3 -21 -16 -36 -42z"/>
<path d="M1136 4743 c7 -182 27 -279 74 -373 52 -103 145 -188 280 -256 28
-14 54 -24 56 -21 6 6 13 61 15 127 5 160 -55 302 -181 427 -61 61 -215 173
-238 173 -6 0 -9 -29 -6 -77z"/>
<path d="M1137 4253 c-5 -10 -1 -119 8 -208 13 -136 69 -266 152 -356 31 -34
135 -105 202 -139 35 -18 45 -19 52 -8 13 19 6 57 -20 107 -20 39 -22 53 -16
100 14 102 11 125 -30 207 -47 98 -137 190 -248 257 -79 48 -93 53 -100 40z"/>
<path d="M1139 3658 c-10 -338 89 -523 350 -659 36 -19 57 -25 62 -18 3 6 5
56 4 113 -5 195 -69 353 -194 474 -46 44 -184 132 -208 132 -8 0 -13 -15 -14
-42z"/>
<path d="M1662 3402 c-27 -37 -50 -97 -66 -172 -14 -60 -12 -248 1 -261 5 -5
27 1 48 12 63 33 136 81 131 86 -2 3 -19 13 -38 22 -75 40 -92 119 -53 243 13
42 16 63 9 79 -10 22 -11 22 -32 -9z"/>
<path d="M1138 3148 c-2 -7 -3 -41 -2 -76 8 -234 51 -365 156 -474 80 -83 256
-195 259 -166 1 7 3 50 5 96 8 259 -74 406 -318 573 -48 32 -89 59 -92 59 -2
0 -6 -6 -8 -12z"/>
<path d="M1835 3050 c-30 -11 -143 -128 -172 -177 -37 -63 -61 -132 -69 -199
-9 -73 -11 -232 -4 -245 6 -9 119 54 168 94 128 106 215 234 225 337 4 40 1
50 -33 95 -60 78 -92 104 -115 95z"/>
<path d="M1136 2533 c9 -276 73 -428 228 -543 63 -45 175 -104 185 -95 3 4 6
66 5 138 -1 109 -5 141 -22 186 -33 84 -81 157 -149 225 -59 61 -216 176 -239
176 -8 0 -10 -28 -8 -87z"/>
<path d="M1925 2578 c-186 -125 -276 -234 -321 -386 -19 -63 -22 -97 -20 -184
1 -59 5 -110 8 -114 9 -8 88 28 145 67 164 110 270 301 278 498 3 80 -6 153
-20 157 -5 2 -37 -15 -70 -38z"/>
<path d="M2390 2601 c0 -18 33 -110 58 -158 69 -138 214 -251 399 -313 50 -16
104 -32 120 -34 72 -10 176 -37 199 -52 37 -25 46 -49 38 -102 -6 -45 -48
-166 -65 -187 -4 -6 -33 -59 -63 -118 -79 -150 -108 -243 -112 -348 -6 -169
40 -279 178 -425 99 -106 129 -160 131 -237 1 -66 -13 -249 -20 -262 -4 -7 -3
-7 4 0 11 11 63 220 67 268 6 78 -29 153 -123 262 -53 61 -107 157 -118 210
-13 62 -5 180 17 245 21 64 90 193 98 185 4 -3 -7 -40 -37 -130 -14 -40 -12
-162 3 -228 25 -105 60 -163 175 -282 37 -38 75 -83 86 -100 19 -31 44 -119
40 -145 -4 -30 -16 -157 -21 -230 -7 -92 -7 -80 -5 -111 l1 -26 311 1 311 1
24 30 c14 17 32 46 41 65 19 43 25 152 11 212 -5 23 -11 50 -13 58 -7 34 -55
152 -80 197 -71 126 -125 192 -268 321 -26 23 -50 55 -54 69 -5 23 2 74 22
153 19 75 55 256 60 300 8 70 8 204 0 259 -34 230 -207 425 -441 496 -68 20
-77 19 -97 -14 -21 -36 -90 -71 -140 -71 -50 0 -85 17 -137 67 -48 45 -77 54
-175 55 -41 1 -59 -5 -97 -32 -41 -29 -56 -34 -106 -34 -49 0 -66 5 -100 30
-23 16 -45 38 -48 49 -15 47 -46 104 -60 109 -8 3 -14 2 -14 -3z m852 -440
c84 -37 128 -98 127 -176 l-1 -50 -11 41 c-18 64 -63 126 -118 163 -68 47 -67
52 3 22z"/>
<path d="M3421 2538 l-34 -9 84 -29 c160 -54 284 -146 369 -276 97 -148 126
-352 91 -624 -18 -135 -21 -154 -26 -180 -24 -123 0 -171 135 -275 98 -76 158
-134 205 -200 46 -64 126 -198 138 -229 4 -10 10 -16 13 -14 10 10 -65 180
-113 256 -42 69 -128 163 -240 266 -56 51 -57 57 -19 202 15 56 29 112 31 125
3 13 8 38 11 54 4 17 9 41 12 55 8 40 8 302 0 343 -22 109 -78 231 -146 317
-45 57 -81 92 -161 157 -54 44 -67 50 -84 42 -25 -14 -133 -3 -161 16 -23 17
-55 18 -105 3z"/>
<path d="M1137 2082 c-9 -15 3 -206 17 -278 21 -106 78 -223 139 -284 54 -54
140 -113 209 -143 l55 -24 -3 111 c-5 250 -89 420 -269 546 -56 38 -143 81
-148 72z"/>
<path d="M1924 2042 c-284 -189 -353 -329 -335 -670 1 -23 2 -23 79 18 167 89
253 187 301 343 11 37 23 89 27 115 9 64 12 242 5 242 -3 0 -38 -21 -77 -48z"/>
<path d="M1139 1533 c-2 -35 2 -173 6 -203 23 -182 95 -310 231 -411 71 -52
167 -100 175 -88 8 13 4 180 -6 233 -35 198 -161 372 -331 459 -54 27 -74 30
-75 10z"/>
<path d="M1888 1485 c-164 -111 -261 -238 -291 -386 -14 -67 -13 -257 1 -271
13 -13 183 95 243 155 70 69 123 170 144 274 18 85 25 285 10 289 -5 2 -53
-26 -107 -61z"/>
<path d="M1139 1008 c-5 -85 4 -224 17 -278 17 -75 27 -101 54 -155 49 -97
137 -180 264 -250 51 -29 70 -35 76 -25 8 13 5 229 -3 265 -3 11 -8 34 -13 50
-22 93 -133 237 -234 306 -27 19 -50 37 -50 42 0 4 -5 7 -11 7 -6 0 -30 14
-55 30 -44 31 -44 31 -45 8z"/>
<path d="M1935 989 c-101 -70 -184 -139 -219 -182 -72 -88 -94 -138 -125 -282
-6 -24 -7 -209 -2 -237 1 -8 95 42 99 54 2 4 8 8 14 8 14 0 84 58 138 112 106
108 170 257 174 403 1 50 -2 108 -8 128 l-11 37 -60 -41z"/>
</g>
</svg>
