<?xml version="1.0" standalone="no"?>
<!DOCTYPE svg PUBLIC "-//W3C//DTD SVG 20010904//EN"
 "http://www.w3.org/TR/2001/REC-SVG-20010904/DTD/svg10.dtd">
<svg version="1.0" xmlns="http://www.w3.org/2000/svg"
 width="512.000000pt" height="512.000000pt" viewBox="0 0 512.000000 512.000000"
 preserveAspectRatio="xMidYMid meet">
<metadata>
Created by potrace 1.11, written by Peter Selinger 2001-2013
</metadata>
<g transform="translate(0.000000,512.000000) scale(0.100000,-0.100000)"
fill="#000000" stroke="none">
<path d="M1866 4949 c-45 -5 -71 -15 -117 -47 -32 -22 -66 -39 -76 -36 -90 20
-172 4 -252 -50 -47 -32 -53 -33 -98 -25 -89 17 -211 -27 -275 -100 -45 -51
-80 -134 -82 -194 -2 -29 -10 -64 -19 -77 -45 -70 -178 -509 -226 -746 -61
-307 -81 -524 -81 -905 0 -294 6 -340 54 -438 45 -92 113 -162 227 -232 148
-91 229 -190 264 -324 31 -120 24 -169 -105 -749 -112 -504 -120 -546 -120
-646 0 -120 13 -153 79 -197 l34 -23 684 0 c757 0 729 -2 776 64 19 27 22 46
25 147 l4 116 -121 545 c-86 387 -121 563 -121 609 0 101 36 218 89 288 l18
23 28 -88 c145 -467 532 -806 1015 -890 128 -22 379 -15 495 14 494 125 842
473 967 967 29 116 36 367 14 495 -83 476 -420 866 -873 1011 l-73 23 0 338 0
338 80 0 c73 0 83 3 105 25 17 16 25 35 25 57 0 29 -23 56 -222 254 -323 322
-293 322 -615 0 -200 -198 -223 -225 -223 -254 0 -22 8 -41 25 -57 22 -22 32
-25 105 -25 l80 0 0 -338 0 -338 -86 -28 c-110 -36 -243 -102 -329 -165 -38
-28 -72 -48 -77 -45 -4 3 -8 20 -8 39 0 52 -37 290 -65 422 -47 216 -164 604
-210 693 -13 25 -26 65 -29 90 -11 88 -34 144 -84 200 -59 66 -146 106 -227
104 -47 -1 -52 1 -77 37 -16 22 -53 55 -84 75 -64 41 -126 53 -218 43z m-708
-645 c42 -29 44 -55 11 -151 -46 -136 -105 -363 -138 -528 -49 -243 -63 -398
-68 -750 -2 -183 -9 -331 -14 -347 -24 -60 -114 -58 -140 3 -17 42 -6 599 15
774 36 294 87 529 176 810 63 197 94 234 158 189z m2738 -970 c216 -44 396
-138 556 -292 171 -164 284 -375 329 -612 18 -98 16 -300 -5 -398 -50 -235
-155 -430 -318 -588 -214 -209 -481 -318 -778 -317 -137 0 -212 11 -335 50
-287 90 -540 308 -669 578 -97 203 -134 454 -97 670 16 93 74 265 113 334 95
168 232 320 378 416 237 156 548 216 826 159z m-2451 -1919 c14 -13 25 -36 25
-50 0 -14 -36 -187 -80 -383 -68 -308 -88 -409 -116 -599 -9 -59 -88 -79 -130
-32 -33 36 -16 159 86 619 78 351 98 429 117 448 29 29 68 28 98 -3z"/>
<path d="M3622 3177 c-19 -21 -22 -34 -22 -120 l0 -97 -98 0 c-90 0 -100 -2
-120 -23 -12 -13 -22 -31 -22 -40 0 -11 -8 -17 -21 -17 -55 0 -139 -82 -139
-135 0 -10 -41 -60 -91 -112 -123 -128 -144 -172 -144 -313 0 -96 3 -110 29
-165 19 -38 61 -93 116 -150 83 -86 87 -93 93 -144 4 -30 19 -80 34 -110 33
-68 188 -234 212 -226 11 3 25 -11 45 -45 16 -27 65 -84 108 -127 l78 -78 85
85 c46 46 95 103 107 127 16 29 28 41 39 38 10 -3 45 26 102 84 96 98 134 164
144 253 5 50 10 57 94 144 122 125 144 173 144 314 0 142 -22 189 -145 315
-50 50 -90 99 -90 109 0 9 -9 35 -20 56 -21 41 -80 80 -120 80 -13 0 -20 7
-20 18 0 10 -10 28 -23 40 -21 19 -34 22 -120 22 l-97 0 0 98 c0 90 -2 100
-23 120 -32 30 -87 29 -115 -1z"/>
</g>
</svg>
